<svg id="visual" viewBox="0 0 900 600" width="900" height="600" xmlns="http://www.w3.org/2000/svg" xmlns:xlink="http://www.w3.org/1999/xlink" version="1.1"><rect x="0" y="0" width="900" height="600" fill="#051347"></rect><defs><linearGradient id="grad1_0" x1="33.3%" y1="0%" x2="100%" y2="100%"><stop offset="20%" stop-color="#051347" stop-opacity="1"></stop><stop offset="80%" stop-color="#051347" stop-opacity="1"></stop></linearGradient></defs><defs><linearGradient id="grad2_0" x1="0%" y1="0%" x2="66.7%" y2="100%"><stop offset="20%" stop-color="#051347" stop-opacity="1"></stop><stop offset="80%" stop-color="#051347" stop-opacity="1"></stop></linearGradient></defs><g transform="translate(900, 0)"><path d="M0 486.7C-72.6 488.8 -145.2 490.8 -186.3 449.7C-227.3 408.6 -236.9 324.5 -276.5 276.5C-316.1 228.4 -385.8 216.5 -425.9 176.4C-466 136.4 -476.4 68.2 -486.7 0L0 0Z" fill="#161b51"></path></g><g transform="translate(0, 600)"><path d="M0 -486.7C51.3 -451.4 102.6 -416.1 164.9 -398.2C227.3 -380.3 300.6 -379.9 344.2 -344.2C387.8 -308.4 401.6 -237.4 420.4 -174.1C439.2 -110.9 463 -55.4 486.7 0L0 0Z" fill="#161b51"></path></g></svg>